<svg width="592" height="632" viewBox="0 0 592 632" fill="red" xmlns="http://www.w3.org/2000/svg">
  <path fill-rule="evenodd" clip-rule="evenodd" d="M132.881 0.431731C97.6975 3.87373 68.4935 16.7777 45.7895 38.9157C20.6695 63.4087 4.89848 96.6227 0.851479 133.558C-0.830521 148.904 0.0734813 176.841 2.73548 191.77C9.06048 227.247 25.6305 264.892 49.7555 298.595C70.5885 327.696 103.051 360.717 138.556 388.919C146.16 394.959 153.374 400.751 154.588 401.791L156.796 403.683L152.346 413.076C139.778 439.607 134.18 470.17 136.834 497.77C138.837 518.596 142.74 532.517 151.599 550.428C167.4 582.375 197.889 608.285 234.965 621.275C280.735 637.31 332.684 634.298 373.892 613.22C409.147 595.186 435.755 564.808 447.309 529.398C454.023 508.821 456.347 484.036 453.477 463.619C450.842 444.875 443.489 421.708 435.856 408.102L432.957 402.934L440.169 397.143C481.464 363.983 504.248 342.27 527.949 313.487C572.958 258.831 595.415 197.903 591.039 142.321C589.119 117.931 584.514 100.251 574.88 80.2697C561.264 52.0337 540.203 30.2547 513.224 16.5127C471.959 -4.50428 423.803 -5.31127 382.379 14.3217C367.613 21.3197 355.46 29.9487 343.881 41.6547C323.148 62.6147 309.858 88.2387 303.652 119.213C301.718 128.868 301.434 133.503 301.413 155.77C301.391 178.143 301.672 182.845 303.706 194.113C310.852 233.716 326.68 274.726 353.168 322.27C365.509 344.42 397.627 395.733 399.166 395.758C400.098 395.772 399.635 394.973 391.94 383.27C351.724 322.115 326.958 273.527 313.795 229.958C308.228 211.529 304.482 193.984 302.973 179.27C301.725 167.107 302.241 136.053 303.862 125.77C308.117 98.7707 318.898 73.0907 333.876 54.2787C340.594 45.8427 356.254 30.9837 363.381 26.2847C380.178 15.2107 402.024 6.60373 421.738 3.29373C434.784 1.10273 464.171 1.61372 475.881 4.23472C511.116 12.1217 539.079 29.8717 559.851 57.5357C585.186 91.2787 595.581 139.257 587.852 186.77C576.246 258.105 527.254 327.733 441.881 394.224C431.021 402.682 431.356 401.768 435.863 410.639C442.536 423.774 448.443 441.921 452.017 460.27C453.952 470.203 453.691 495.879 451.536 507.506C445.985 537.462 434.106 561.066 414.086 581.924C384.012 613.257 343.292 629.979 296.881 630.056C278.884 630.085 268.884 628.983 253.051 625.223C213.054 615.725 179.898 593.554 160.319 563.214C144.591 538.843 137.772 515.159 137.733 484.77C137.7 458.668 142.711 436.084 153.769 412.502C156.031 407.679 157.881 403.563 157.881 403.354C157.881 403.146 150.569 397.129 141.631 389.985C69.2995 332.162 28.7485 278.549 9.83947 215.742C3.29947 194.02 1.44547 180.642 1.45847 155.27C1.47147 131.329 2.47547 123.331 7.76447 105.076C15.1105 79.7177 26.9705 59.5607 45.3285 41.2347C65.9935 20.6047 90.1215 8.41073 120.57 3.20673C135.516 0.652725 163.62 1.64072 177.881 5.22172C195.926 9.75272 207.686 14.5257 220.71 22.6037C250.284 40.9457 270.796 68.1917 281.335 103.132C287.18 122.507 288.329 131.291 288.289 156.27C288.26 174.287 287.852 180.624 286.038 191.27C278.915 233.067 263.463 274.27 237.661 320.27C226.152 340.787 217.437 354.985 198.466 384.121C194.222 390.639 190.954 396.177 191.204 396.426C192.187 397.409 228.282 339.739 240.225 318.106C297.01 215.238 305.333 127.509 264.403 63.2567C250.223 40.9987 223.797 19.8077 197.7 9.76773C179.144 2.62873 151.348 -1.37427 132.881 0.431731ZM128.51 26.8007C107.208 29.2257 85.6325 38.5637 68.4145 52.8087C27.9465 86.2917 14.2445 149.173 33.8785 211.298C39.7155 229.767 49.3585 250.933 59.0145 266.473C72.0175 287.397 98.7145 319.065 120.043 338.864C138.352 355.86 168.633 381.352 169.492 380.492C169.734 380.25 167.783 378.324 165.156 376.212C105.119 327.925 69.9105 288.142 48.3855 244.27C25.3065 197.231 20.0395 148.655 33.5305 107.27C36.9615 96.7467 45.6155 79.9147 51.8315 71.6767C58.2345 63.1897 68.8465 53.2037 78.0835 46.9717C98.1575 33.4297 117.671 27.6757 143.465 27.6917C159.618 27.7017 168.377 29.0047 181.812 33.3957C226.852 48.1157 257.059 87.5147 262.804 139.032C265.484 163.063 262.641 188.246 253.747 219.27C241.882 260.659 220.803 302.883 182.713 361.56C177.254 369.969 172.562 377.619 172.287 378.56C171.659 380.7 172.29 379.839 179.701 368.448C223.487 301.145 243.248 261.561 256.342 214.922C269.492 168.084 267.287 125.339 249.931 90.6357C233.974 58.7307 203.582 35.6847 167.825 28.3767C158.245 26.4187 138.733 25.6367 128.51 26.8007ZM430.393 26.8547C398.175 30.5247 370.421 46.2397 351.401 71.5817C340.606 85.9657 333.245 103.005 328.739 124.046C325.84 137.576 325.116 165.745 327.292 180.27C334.58 228.903 355.306 279.332 392.232 338.27C410.984 368.201 418.828 379.77 420.369 379.77C421.21 379.77 423.132 378.698 424.64 377.388C426.147 376.077 432.781 370.602 439.381 365.22C488.207 325.408 522.359 286.259 542.717 246.765C554.246 224.4 559.624 208.841 563.841 185.649C573.2 134.173 557.543 83.4097 523.491 54.8267C501.222 36.1347 477.736 27.1787 448.881 26.3777C442.556 26.2027 434.236 26.4167 430.393 26.8547ZM476.381 31.1527C503.532 38.4427 528.587 56.4427 543.563 79.4177C558.347 102.099 564.911 125.588 565.007 156.149C565.196 216.867 533.793 276.714 470.123 336.976C455.863 350.473 422.002 378.79 420.166 378.755C419.37 378.739 412.914 368.982 396.356 342.77C363.49 290.742 341.593 242.346 332.489 201.619C319.655 144.203 329.681 95.4087 361.128 62.2477C377.189 45.3097 396.021 34.8097 419.415 29.7467C426.931 28.1207 431.454 27.8607 447.381 28.1367C464.215 28.4297 467.521 28.7737 476.381 31.1527ZM190.881 397.99C190.881 398.282 197.294 404.299 205.131 411.362C212.968 418.425 221.856 426.516 224.881 429.343C244.647 447.813 293.512 492.075 294.595 492.491C295.99 493.026 303.448 486.457 337.381 454.808C343.964 448.668 372.225 422.812 389.092 407.496C394.983 402.147 399.483 397.772 399.092 397.775C398.179 397.782 369.076 424.112 328.076 462.027C310.308 478.457 295.4 491.758 294.947 491.585C294.23 491.31 267.242 466.757 225.9 428.766C214.155 417.973 198.206 403.664 193.13 399.365C191.893 398.317 190.881 397.699 190.881 397.99ZM403.381 426.49C388.262 440.926 303.614 519.201 300.111 521.985C298.183 523.517 295.966 524.77 295.183 524.77C294.4 524.77 290.265 521.732 285.995 518.02C276.652 509.899 249.197 485.162 246.356 482.306C241.23 477.153 180.506 421.179 179.273 420.47C178.507 420.03 177.881 419.834 177.881 420.033C177.881 420.233 188.566 430.268 201.625 442.333C214.685 454.398 229.422 468.096 234.375 472.772C254.47 491.743 291.204 524.331 293.505 525.227C297.507 526.787 292.421 531.139 362.409 466.27C406.548 425.36 411.881 420.307 411.881 419.395C411.881 418.39 411.751 418.498 403.381 426.49ZM412.881 420.041C412.881 420.411 414.053 423.313 415.484 426.491C432.527 464.32 432.843 503.154 416.377 536.27C396.612 576.024 358.673 600.099 308.338 604.826C274.976 607.96 239.126 599.34 213.535 582.03C192.869 568.054 176.019 545.669 168.466 522.159C163.903 507.956 162.585 497.123 163.187 478.77C163.786 460.499 165.719 450.866 172.115 434.27C177.077 421.394 177.246 420.823 174.783 425.27C168.475 436.658 163.431 455.581 161.988 473.27C158.871 511.474 171.061 544.625 197.722 570.444C223.732 595.634 261.341 608.425 303.116 606.291C331.029 604.865 357.189 596.55 377.615 582.613C393.622 571.69 411.41 550.907 418.912 534.361C433.367 502.483 433.359 467.657 418.891 431.637C415.218 422.491 412.881 417.983 412.881 420.041Z" fill="black"/>
</svg>
