<svg width="136" height="96" viewBox="0 0 136 96" fill="none" xmlns="http://www.w3.org/2000/svg">
<path d="M48.6396 0.198262C45.3456 0.864678 42.55 2.37181 40.2963 4.66838C38.3675 6.64713 37.0348 9.14875 36.3955 12.0297C36.1029 13.3421 35.9837 16.1102 36.1679 17.6174C36.9156 23.8202 41.0006 30.4228 47.7186 36.2771C48.1412 36.6462 48.748 37.169 49.0622 37.4561C49.6365 37.9585 50.0807 38.3071 52.0961 39.8552C52.6379 40.2756 53.0713 40.6446 53.0605 40.6754C53.0388 40.7164 52.8546 41.0548 52.6379 41.4546C52.4212 41.8442 52.0745 42.6131 51.8578 43.1463C49.539 49.0313 50.7742 54.947 55.1951 59.1915C56.5495 60.4936 57.8606 61.3753 59.6377 62.2161C62.3682 63.4874 64.7845 64 68.0894 64C70.3648 63.9898 71.5784 63.8462 73.3988 63.3438C78.1772 62.0418 82.0564 58.9762 84.0718 54.9162C84.9711 53.1015 85.372 51.2356 85.372 48.8877C85.372 46.2631 84.8628 44.2125 83.5517 41.5776L83.0532 40.5729L83.2916 40.4191C83.5625 40.2448 85.3395 38.8197 86.9865 37.4664C88.1243 36.5334 91.104 33.7857 91.7758 33.0475C93.8454 30.7817 95.0373 29.254 96.2834 27.3061C100.444 20.7854 101.214 14.029 98.4505 8.35931C97.9954 7.42632 96.8902 5.82692 96.0234 4.86318C94.7556 3.43808 92.491 1.90019 90.4647 1.09024C88.276 0.208515 86.5856 -0.0683095 83.8767 0.0137141C81.7638 0.0752299 80.962 0.198265 79.1958 0.772408C75.3492 2.01297 72.2285 4.58637 70.4623 7.96971C69.1404 10.5123 68.5986 13.1165 68.7178 16.3871C68.9237 21.6261 70.9608 26.9882 75.4575 34.083C76.281 35.3748 77.0829 36.6154 77.2454 36.8409C77.8305 37.6406 79.3041 39.8655 79.3041 39.9475C79.3041 39.9885 78.5673 40.6549 77.6571 41.4033C76.7578 42.162 75.9668 42.8284 75.9018 42.89C75.8368 42.9412 75.2733 43.4333 74.6449 43.9665C74.0164 44.4996 73.1929 45.2173 72.8028 45.5659C72.4127 45.9042 71.6651 46.5706 71.1233 47.0423C70.5924 47.5139 69.693 48.3136 69.1404 48.8262L68.1327 49.7489L67.8727 49.5439C67.7318 49.4414 66.3557 48.2418 64.817 46.8885C63.2784 45.5351 61.1005 43.6384 59.9627 42.6849C58.8358 41.7212 57.6548 40.7062 57.3405 40.4293L56.7663 39.9167L57.4489 38.9325C60.7212 34.1958 62.4874 31.3148 63.961 28.3211C65.0446 26.127 65.2613 25.6144 65.9764 23.6049C67.6234 18.94 67.9052 14.7979 66.8433 10.9019C65.3697 5.51934 60.9271 1.50034 55.0001 0.229019C54.4583 0.116242 53.5373 0.0547259 51.9444 0.023968C49.9615 -0.00678606 49.539 0.0137141 48.6396 0.198262ZM53.5914 2.76141C56.1161 3.07924 58.955 4.39156 60.7212 6.07298C62.4982 7.75441 63.5059 9.5076 64.1994 12.1117C64.427 12.973 64.492 13.4753 64.5353 14.9722C64.622 17.5661 64.3511 19.3603 63.4734 22.1183C62.2382 26.0347 60.1686 29.8692 55.7044 36.5026C55.0651 37.4561 54.5125 38.2148 54.48 38.1943C54.4366 38.184 53.5264 37.4664 52.4429 36.6051C46.1366 31.5506 42.3767 27.0805 40.3071 22.1593C39.7653 20.8572 39.4944 19.9857 39.2019 18.5401C38.8876 16.992 38.8551 14.3571 39.1369 12.9012C40.1012 7.97996 43.7636 4.08399 48.4229 3.01772C50.0916 2.63837 51.9228 2.5461 53.5914 2.76141ZM87.5933 2.99722C88.8936 3.31504 90.974 4.25828 91.9925 4.98621C92.3826 5.26304 93.1411 5.9397 93.672 6.47284C95.2324 8.05173 96.2617 9.90744 96.8143 12.1425C97.1069 13.2805 97.1177 13.5061 97.1177 15.5669C97.1177 17.4738 97.0852 17.9147 96.8794 18.8374C95.9692 22.7847 93.8779 26.4551 90.1938 30.6176C89.4354 31.4686 86.2497 34.4726 84.9928 35.5184C83.2591 36.964 81.6663 38.2456 81.6446 38.2045C81.1462 37.6201 78.0147 32.8629 76.8987 30.997C75.0024 27.8289 74.0706 25.9835 73.1821 23.6254C70.6357 16.8382 71.0583 11.2403 74.439 7.09824C76.2052 4.93495 79.1199 3.31504 82.1756 2.80241C83.5733 2.5666 86.228 2.66913 87.5933 2.99722ZM56.3437 43.2078C56.8421 43.6384 57.6981 44.3663 58.229 44.8174C58.7708 45.2686 59.7677 46.1298 60.4503 46.7347C61.133 47.3293 62.3574 48.3956 63.1592 49.0928C63.961 49.7899 65.3913 51.051 66.334 51.902L68.046 53.4296L68.5553 52.9682C68.837 52.7222 69.8014 51.8712 70.6899 51.092C71.5892 50.3026 72.6511 49.3593 73.0629 48.9902C73.4746 48.6211 73.8647 48.2726 73.9297 48.2213C73.9947 48.1598 74.8291 47.4524 75.7826 46.6219C76.7361 45.8017 78.1989 44.5611 79.0332 43.864C79.8676 43.1565 80.5827 42.5414 80.6369 42.4799C80.9295 42.1108 82.0455 44.961 82.3923 46.991C82.9882 50.4666 81.9372 54.055 79.5642 56.5874C77.9064 58.3508 75.9885 59.5914 73.6263 60.4219C70.8416 61.3959 67.5801 61.6009 64.5678 61.0063C59.3668 59.9605 55.2493 56.4644 53.9815 51.984C53.7215 51.0818 53.689 50.8049 53.689 49.0415C53.6781 47.0217 53.7215 46.6834 54.2416 44.9917C54.5233 44.0485 55.2276 42.4286 55.3468 42.4286C55.3901 42.4286 55.8344 42.7772 56.3437 43.2078Z" fill="#14B8A6"/>
<path d="M0 95V78.68H4.704V82.52H4.8V95H0ZM11.36 95V84.888C11.36 83.992 11.1253 83.32 10.656 82.872C10.208 82.424 9.54667 82.2 8.672 82.2C7.92533 82.2 7.25333 82.3707 6.656 82.712C6.08 83.0533 5.62133 83.5227 5.28 84.12C4.96 84.7173 4.8 85.4213 4.8 86.232L4.384 82.296C4.91733 81.1013 5.696 80.152 6.72 79.448C7.76533 78.7227 9.04533 78.36 10.56 78.36C12.3733 78.36 13.76 78.872 14.72 79.896C15.68 80.8987 16.16 82.2533 16.16 83.96V95H11.36Z" fill="#14B8A6"/>
<path d="M29.6782 95C29.5502 94.5307 29.4543 94.0293 29.3903 93.496C29.3476 92.9627 29.3263 92.344 29.3263 91.64H29.1982V83.928C29.1982 83.2667 28.9743 82.7547 28.5263 82.392C28.0996 82.008 27.4596 81.816 26.6063 81.816C25.7956 81.816 25.1449 81.9547 24.6543 82.232C24.1849 82.5093 23.8756 82.9147 23.7262 83.448H19.1502C19.3636 81.976 20.1209 80.76 21.4223 79.8C22.7236 78.84 24.5049 78.36 26.7663 78.36C29.1129 78.36 30.9049 78.8827 32.1423 79.928C33.3796 80.9733 33.9983 82.4773 33.9983 84.44V91.64C33.9983 92.1733 34.0303 92.7173 34.0943 93.272C34.1796 93.8053 34.3076 94.3813 34.4782 95H29.6782ZM23.9823 95.32C22.3609 95.32 21.0703 94.9147 20.1103 94.104C19.1503 93.272 18.6702 92.1733 18.6702 90.808C18.6702 89.2933 19.2356 88.0773 20.3662 87.16C21.5182 86.2213 23.1183 85.6133 25.1663 85.336L29.9342 84.664V87.448L25.9663 88.056C25.1129 88.184 24.4836 88.4187 24.0783 88.76C23.6729 89.1013 23.4702 89.5707 23.4702 90.168C23.4702 90.7013 23.6622 91.1067 24.0462 91.384C24.4302 91.6613 24.9423 91.8 25.5823 91.8C26.5849 91.8 27.4383 91.5333 28.1423 91C28.8463 90.4453 29.1982 89.8053 29.1982 89.08L29.6463 91.64C29.1769 92.856 28.4623 93.7733 27.5023 94.392C26.5423 95.0107 25.3689 95.32 23.9823 95.32Z" fill="#14B8A6"/>
<path d="M37.6875 95V78.68H42.3915V82.52H42.4875V95H37.6875ZM48.6635 95V84.632C48.6635 83.8 48.4395 83.192 47.9915 82.808C47.5648 82.4027 46.9568 82.2 46.1675 82.2C45.4848 82.2 44.8555 82.36 44.2795 82.68C43.7248 82.9787 43.2875 83.416 42.9675 83.992C42.6475 84.5467 42.4875 85.208 42.4875 85.976L42.0715 82.296C42.6048 81.1013 43.3728 80.152 44.3755 79.448C45.3995 78.7227 46.6262 78.36 48.0555 78.36C49.7622 78.36 51.0848 78.84 52.0235 79.8C52.9835 80.76 53.4635 81.9653 53.4635 83.416V95H48.6635ZM59.6395 95V84.632C59.6395 83.8 59.4155 83.192 58.9675 82.808C58.5408 82.4027 57.9328 82.2 57.1435 82.2C56.4608 82.2 55.8315 82.36 55.2555 82.68C54.7008 82.9787 54.2635 83.416 53.9435 83.992C53.6235 84.5467 53.4635 85.208 53.4635 85.976L52.7275 82.296C53.2608 81.1013 54.0502 80.152 55.0955 79.448C56.1622 78.7227 57.4422 78.36 58.9355 78.36C60.7062 78.36 62.0608 78.8613 62.9995 79.864C63.9595 80.8453 64.4395 82.136 64.4395 83.736V95H59.6395Z" fill="#14B8A6"/>
<path d="M75.8378 95.32C74.0458 95.32 72.4671 94.968 71.1018 94.264C69.7578 93.5387 68.7017 92.536 67.9337 91.256C67.1871 89.9547 66.8138 88.4613 66.8138 86.776C66.8138 85.0907 67.1871 83.6187 67.9337 82.36C68.7017 81.1013 69.7578 80.12 71.1018 79.416C72.4671 78.712 74.0458 78.36 75.8378 78.36C77.6511 78.36 79.2298 78.712 80.5738 79.416C81.9391 80.12 82.9951 81.1013 83.7418 82.36C84.4884 83.6187 84.8618 85.0907 84.8618 86.776C84.8618 88.4613 84.4777 89.9547 83.7097 91.256C82.9631 92.536 81.9071 93.5387 80.5417 94.264C79.1977 94.968 77.6298 95.32 75.8378 95.32ZM75.8378 91.544C76.5844 91.544 77.2564 91.352 77.8538 90.968C78.4724 90.584 78.9631 90.04 79.3258 89.336C79.6884 88.6107 79.8698 87.7467 79.8698 86.744C79.8698 85.272 79.4751 84.1413 78.6858 83.352C77.9178 82.5413 76.9684 82.136 75.8378 82.136C74.7071 82.136 73.7471 82.5413 72.9577 83.352C72.1897 84.1627 71.8057 85.2933 71.8057 86.744C71.8057 87.7467 71.9871 88.6107 72.3497 89.336C72.7124 90.04 73.1924 90.584 73.7897 90.968C74.4084 91.352 75.0911 91.544 75.8378 91.544Z" fill="#14B8A6"/>
<path d="M87.4062 95V78.68H92.1103V82.52H92.2063V95H87.4062ZM92.2063 86.488L91.7903 82.616C92.1743 81.2293 92.8036 80.1733 93.6783 79.448C94.5529 78.7227 95.6409 78.36 96.9423 78.36C97.3476 78.36 97.6462 78.4027 97.8382 78.488V82.968C97.7316 82.9253 97.5823 82.904 97.3903 82.904C97.1983 82.8827 96.9636 82.872 96.6862 82.872C95.1502 82.872 94.0196 83.1493 93.2943 83.704C92.5689 84.2373 92.2063 85.1653 92.2063 86.488Z" fill="#14B8A6"/>
<path d="M99.9062 95V78.68H104.706V95H99.9062ZM99.7462 76.504V71.32H104.866V76.504H99.7462Z" fill="#14B8A6"/>
<path d="M108.531 95V78.68H113.235V82.52H113.331V95H108.531ZM119.507 95V84.632C119.507 83.8 119.283 83.192 118.835 82.808C118.409 82.4027 117.801 82.2 117.011 82.2C116.329 82.2 115.699 82.36 115.123 82.68C114.569 82.9787 114.131 83.416 113.811 83.992C113.491 84.5467 113.331 85.208 113.331 85.976L112.915 82.296C113.449 81.1013 114.217 80.152 115.219 79.448C116.243 78.7227 117.47 78.36 118.899 78.36C120.606 78.36 121.929 78.84 122.867 79.8C123.827 80.76 124.307 81.9653 124.307 83.416V95H119.507ZM130.483 95V84.632C130.483 83.8 130.259 83.192 129.811 82.808C129.385 82.4027 128.777 82.2 127.987 82.2C127.305 82.2 126.675 82.36 126.099 82.68C125.545 82.9787 125.107 83.416 124.787 83.992C124.467 84.5467 124.307 85.208 124.307 85.976L123.571 82.296C124.105 81.1013 124.894 80.152 125.939 79.448C127.006 78.7227 128.286 78.36 129.779 78.36C131.55 78.36 132.905 78.8613 133.843 79.864C134.803 80.8453 135.283 82.136 135.283 83.736V95H130.483Z" fill="#14B8A6"/>
</svg>
