<?xml version="1.0" standalone="no"?>
<!DOCTYPE svg PUBLIC "-//W3C//DTD SVG 20010904//EN"
 "http://www.w3.org/TR/2001/REC-SVG-20010904/DTD/svg10.dtd">
<svg version="1.0" xmlns="http://www.w3.org/2000/svg"
 width="1024.000000pt" height="1024.000000pt" viewBox="0 0 1024.000000 1024.000000"
 preserveAspectRatio="xMidYMid meet">

<g transform="translate(0.000000,1024.000000) scale(0.100000,-0.100000)"
fill="#000000" stroke="none">
<path d="M3436 8560 c-482 -61 -882 -344 -1096 -775 -136 -274 -185 -535 -168
-891 17 -356 129 -710 342 -1079 219 -380 578 -768 1077 -1167 l146 -116 -43
-88 c-55 -118 -106 -273 -135 -414 -20 -99 -24 -143 -23 -310 0 -164 4 -212
23 -300 92 -420 332 -744 710 -954 516 -288 1222 -285 1716 6 252 148 467 375
586 618 159 323 192 711 90 1066 -33 115 -93 270 -127 330 -13 22 -24 45 -24
50 0 5 26 29 57 54 448 353 734 636 1010 1000 64 85 195 298 256 417 454 888
286 1871 -398 2324 -141 94 -354 179 -540 215 -125 25 -406 25 -527 1 -312
-62 -546 -183 -754 -391 -210 -209 -336 -447 -405 -763 -30 -142 -38 -512 -15
-680 81 -569 329 -1130 869 -1961 54 -85 95 -157 91 -161 -101 -89 -270 -242
-474 -430 -140 -129 -307 -282 -370 -340 -63 -58 -131 -120 -151 -139 l-36
-34 -129 119 c-123 113 -775 708 -862 785 -23 21 -42 40 -42 42 0 3 50 82 112
178 453 703 660 1126 783 1604 60 233 77 349 82 572 9 341 -33 559 -158 820
-117 248 -299 449 -535 592 -144 88 -292 144 -470 181 -113 23 -359 33 -468
19z m459 -300 c110 -28 175 -54 276 -107 113 -59 198 -124 290 -221 165 -172
264 -370 320 -642 28 -137 30 -401 5 -565 -68 -440 -246 -881 -568 -1415 -130
-215 -320 -515 -338 -534 -9 -9 -19 -1 -230 174 -672 558 -1046 1098 -1177
1700 -30 141 -43 431 -24 575 72 555 428 954 936 1049 118 23 402 15 510 -14z
m2941 15 c492 -86 845 -445 960 -975 30 -135 27 -466 -5 -620 -127 -619 -532
-1187 -1272 -1786 -68 -55 -130 -103 -136 -107 -30 -18 -463 691 -603 986
-296 624 -394 1123 -305 1562 100 499 448 854 921 939 108 19 330 20 440 1z
m-504 -3990 c125 -293 155 -580 88 -846 -111 -449 -483 -790 -969 -889 -288
-59 -561 -44 -830 46 -409 136 -699 449 -794 858 -28 123 -31 410 -4 533 30
139 110 363 131 363 8 0 59 -46 441 -400 218 -202 480 -442 621 -568 57 -50
90 -72 108 -72 33 0 49 15 661 584 275 255 504 464 508 463 5 -2 22 -34 39
-72z"/>
</g>
</svg>
